<?xml version="1.0" encoding="UTF-8"?>
<svg id="Layer_2" data-name="Layer 2" xmlns="http://www.w3.org/2000/svg" viewBox="0 0 1806.82 608.74">
  <defs>
    <style>
      .cls-1 {
        fill: #0b07a5;
      }

      .cls-2 {
        fill: #1783c6;
        opacity: .5;
      }
    </style>
  </defs>
  <g id="Layer_1-2" data-name="Layer 1">
    <g>
      <g>
        <circle class="cls-1" cx="268.62" cy="376.32" r="232.42"/>
        <g>
          <g>
            <path d="M606.15,200.84h75.79c8.33,0,16.1,1.3,23.31,3.91,7.2,2.6,13.41,6.08,18.62,10.42,5.21,4.34,9.29,9.42,12.24,15.24,2.95,5.82,4.43,11.85,4.43,18.1,0,10.25-2.47,18.75-7.42,25.52-4.95,6.77-10.81,11.81-17.58,15.11v2.6c9.9,3.65,17.67,9.21,23.31,16.67,5.64,7.47,8.46,16.67,8.46,27.61,0,7.99-1.61,15.15-4.82,21.49-3.21,6.34-7.64,11.72-13.28,16.15-5.64,4.43-12.33,7.81-20.05,10.16-7.73,2.34-16.11,3.52-25.13,3.52h-77.87V200.84Zm71.88,73.97c7.29,0,12.93-1.65,16.93-4.95,3.99-3.3,5.99-7.98,5.99-14.06s-2-10.76-5.99-14.06c-4-3.3-9.29-4.95-15.89-4.95h-32.3v38.03h31.25Zm3.39,76.05c16.84,0,25.26-6.94,25.26-20.84s-8.77-20.84-26.31-20.84h-33.6v41.67h34.64Z"/>
            <path d="M770.23,387.32V200.84h39.07v186.48h-39.07Z"/>
            <path d="M926.5,371.18h-2.61c-8.68,13.54-21.71,20.32-39.07,20.32-15.98,0-27.87-5.12-35.68-15.37-7.81-10.24-11.72-23.7-11.72-40.37v-76.05h39.07v71.62c0,6.95,1.65,12.63,4.95,17.06,3.3,4.43,8.42,6.64,15.37,6.64,8.86,0,15.58-3.39,20.18-10.16,4.6-6.77,6.9-15.63,6.9-26.57v-58.6h39.07v127.62h-36.46v-16.15Z"/>
            <path d="M1114.29,356.33c-6.25,10.94-14.46,19.53-24.61,25.79-10.16,6.25-22.44,9.38-36.85,9.38-9.9,0-19.06-1.69-27.48-5.08-8.42-3.39-15.76-8.12-22.01-14.19-6.25-6.08-11.11-13.24-14.59-21.49-3.48-8.24-5.21-17.32-5.21-27.22,0-9.2,1.73-17.93,5.21-26.18,3.47-8.24,8.29-15.45,14.46-21.62,6.16-6.16,13.37-11.07,21.62-14.72,8.24-3.65,17.23-5.47,26.96-5.47,10.59,0,19.92,1.74,28,5.21,8.07,3.48,14.8,8.2,20.18,14.19,5.38,5.99,9.46,13.02,12.24,21.1,2.78,8.07,4.17,16.71,4.17,25.91,0,1.39-.05,2.78-.13,4.17-.09,1.39-.22,2.6-.39,3.65-.18,1.22-.26,2.34-.26,3.39h-94.02c1.91,8.33,5.82,14.41,11.72,18.23,5.9,3.82,12.5,5.73,19.79,5.73s13.32-1.56,18.1-4.69c4.77-3.13,8.55-7.12,11.33-11.98l31.78,15.89Zm-34.64-49.75c-.35-2.08-1.17-4.34-2.47-6.77-1.3-2.43-3.13-4.64-5.47-6.64-2.34-1.99-5.21-3.65-8.59-4.95-3.39-1.3-7.16-1.95-11.33-1.95-6.08,0-11.72,1.74-16.93,5.21-5.21,3.48-9.03,8.51-11.46,15.11h56.26Z"/>
            <path d="M1174.71,387.32h-36.46V200.84h39.07v54.69l-2.6,18.23h2.6c2.95-5.03,7.51-9.33,13.67-12.89,6.16-3.56,13.93-5.34,23.31-5.34,8.16,0,15.97,1.65,23.44,4.95,7.46,3.3,14.02,7.94,19.66,13.93,5.64,5.99,10.11,13.15,13.41,21.49,3.3,8.33,4.95,17.54,4.95,27.61s-1.65,19.27-4.95,27.61c-3.3,8.33-7.77,15.5-13.41,21.49-5.64,5.99-12.2,10.64-19.66,13.93-7.47,3.3-15.28,4.95-23.44,4.95-9.38,0-17.15-1.78-23.31-5.34-6.17-3.56-10.72-7.85-13.67-12.89h-2.6v14.06Zm30.99-32.3c4.17,0,8.11-.74,11.85-2.21,3.73-1.47,7.03-3.56,9.9-6.25,2.86-2.69,5.12-5.99,6.77-9.9,1.65-3.91,2.47-8.29,2.47-13.15s-.83-9.2-2.47-13.02c-1.65-3.82-3.91-7.12-6.77-9.9-2.86-2.78-6.16-4.9-9.9-6.38-3.74-1.47-7.68-2.21-11.85-2.21s-8.12,.74-11.85,2.21c-3.74,1.48-7.03,3.61-9.9,6.38-2.86,2.78-5.12,6.08-6.77,9.9-1.65,3.82-2.48,8.16-2.48,13.02s.82,9.25,2.48,13.15c1.65,3.91,3.91,7.21,6.77,9.9,2.86,2.69,6.16,4.78,9.9,6.25,3.73,1.48,7.68,2.21,11.85,2.21Z"/>
            <path d="M1421.1,356.33c-6.25,10.94-14.46,19.53-24.61,25.79-10.16,6.25-22.44,9.38-36.85,9.38-9.9,0-19.06-1.69-27.48-5.08-8.42-3.39-15.76-8.12-22.01-14.19-6.25-6.08-11.11-13.24-14.59-21.49-3.48-8.24-5.21-17.32-5.21-27.22,0-9.2,1.73-17.93,5.21-26.18,3.47-8.24,8.29-15.45,14.46-21.62,6.16-6.16,13.37-11.07,21.62-14.72,8.24-3.65,17.23-5.47,26.96-5.47,10.59,0,19.92,1.74,28,5.21,8.07,3.48,14.8,8.2,20.18,14.19,5.38,5.99,9.46,13.02,12.24,21.1,2.78,8.07,4.17,16.71,4.17,25.91,0,1.39-.05,2.78-.13,4.17-.09,1.39-.22,2.6-.39,3.65-.18,1.22-.26,2.34-.26,3.39h-94.02c1.91,8.33,5.82,14.41,11.72,18.23,5.9,3.82,12.5,5.73,19.79,5.73s13.32-1.56,18.1-4.69c4.77-3.13,8.55-7.12,11.33-11.98l31.78,15.89Zm-34.64-49.75c-.35-2.08-1.17-4.34-2.47-6.77-1.3-2.43-3.13-4.64-5.47-6.64-2.34-1.99-5.21-3.65-8.59-4.95-3.39-1.3-7.16-1.95-11.33-1.95-6.08,0-11.72,1.74-16.93,5.21-5.21,3.48-9.03,8.51-11.46,15.11h56.26Z"/>
            <path d="M1445.06,259.7h36.46v16.15h2.6c3.47-5.55,8.42-10.33,14.85-14.32,6.42-3.99,13.54-5.99,21.36-5.99,4.69,0,8.77,.57,12.24,1.72,3.47,1.15,6.34,2.42,8.59,3.83l-10.16,34.82c-2.26-1.21-4.65-2.17-7.16-2.86-2.52-.69-5.78-1.04-9.77-1.04-9.73,0-17.15,3.39-22.27,10.16-5.12,6.77-7.68,15.63-7.68,26.57v58.6h-39.07v-127.62Z"/>
            <path d="M1556.79,259.7h36.46v16.15h2.6c3.47-5.55,8.42-10.33,14.85-14.32,6.42-3.99,13.54-5.99,21.36-5.99,4.69,0,8.77,.57,12.24,1.72,3.47,1.15,6.34,2.42,8.59,3.83l-10.16,34.82c-2.26-1.21-4.65-2.17-7.16-2.86-2.52-.69-5.78-1.04-9.77-1.04-9.73,0-17.15,3.39-22.27,10.16-5.12,6.77-7.68,15.63-7.68,26.57v58.6h-39.07v-127.62Z"/>
            <path d="M1711.75,381.85l-54.17-122.15h45.06l29.43,70.32h2.6l28.13-70.32h44.02l-79.96,183.88h-42.71l27.61-61.73Z"/>
          </g>
          <g>
            <path d="M645.85,551.81c-11.31,0-20.77-3.81-28.39-11.42-7.54-7.61-11.31-17.11-11.31-28.49s3.77-20.84,11.31-28.39c7.54-7.68,17-11.52,28.39-11.52s20.88,4.16,28.07,12.49l-7.04,6.83c-5.48-6.62-12.49-9.92-21.02-9.92s-15.54,2.85-21.24,8.54c-5.62,5.62-8.43,12.95-8.43,21.98s2.81,16.36,8.43,21.98c5.69,5.69,12.77,8.54,21.24,8.54,8.89,0,16.61-3.73,23.16-11.2l7.15,6.94c-3.63,4.34-8.08,7.7-13.34,10.08-5.27,2.38-10.92,3.57-16.97,3.57Z"/>
            <path d="M714.57,550.1h-9.82v-76.41h26.04c6.62,0,12.25,2.19,16.91,6.56,4.66,4.38,6.99,9.76,6.99,16.17,0,5.27-1.73,9.94-5.17,14.03-3.45,4.09-7.81,6.71-13.07,7.84l-.21,.32,21.45,31.05v.43h-11.63l-20.6-30.95h-10.88v30.95Zm0-67.02v26.89h15.79c3.98,0,7.36-1.3,10.14-3.89,2.77-2.6,4.16-5.82,4.16-9.66,0-3.56-1.3-6.67-3.89-9.34-2.6-2.67-5.85-4-9.76-4h-16.43Z"/>
            <path d="M828.11,473.69v9.39h-34.79v24.22h31.37v9.18h-31.37v24.22h34.79v9.39h-44.61v-76.41h44.61Z"/>
            <path d="M862.9,550.1h-10.88l28.81-76.41h11.1l28.81,76.41h-10.88l-7.36-20.7h-32.12l-7.47,20.7Zm23.26-64.35l-12.49,34.47h25.4l-12.49-34.47h-.43Z"/>
            <path d="M965.88,483.08v67.02h-9.82v-67.02h-21.34v-9.39h52.5v9.39h-21.34Z"/>
            <path d="M1024.35,550.1h-9.82v-76.41h9.82v76.41Z"/>
            <path d="M1085.93,550.1h-10.24l-26.89-76.41h10.88l20.92,62h.43l21.77-62h10.88l-27.75,76.41Z"/>
            <path d="M1184.32,473.69v9.39h-34.79v24.22h31.37v9.18h-31.37v24.22h34.79v9.39h-44.61v-76.41h44.61Z"/>
            <path d="M1289,551.81c-11.31,0-20.77-3.81-28.39-11.42-7.54-7.61-11.31-17.11-11.31-28.49s3.77-20.84,11.31-28.39c7.54-7.68,17-11.52,28.39-11.52s20.88,4.16,28.07,12.49l-7.04,6.83c-5.48-6.62-12.49-9.92-21.02-9.92s-15.54,2.85-21.24,8.54c-5.62,5.62-8.43,12.95-8.43,21.98s2.81,16.36,8.43,21.98c5.69,5.69,12.77,8.54,21.24,8.54,8.89,0,16.61-3.73,23.16-11.2l7.15,6.94c-3.63,4.34-8.08,7.7-13.34,10.08-5.27,2.38-10.92,3.57-16.97,3.57Z"/>
            <path d="M1390.8,550.1h-42.9v-76.41h9.82v67.02h33.08v9.39Z"/>
            <path d="M1443.62,551.81c-8.47,0-15.3-2.77-20.49-8.32-5.19-5.48-7.79-12.73-7.79-21.77v-48.02h9.82v48.45c0,6.26,1.64,11.2,4.91,14.83,3.27,3.63,7.79,5.44,13.55,5.44s10.28-1.81,13.55-5.44c3.27-3.63,4.91-8.57,4.91-14.83v-48.45h9.82v48.02c0,9.25-2.56,16.58-7.68,21.98-5.12,5.41-11.99,8.11-20.6,8.11Z"/>
            <path d="M1502.64,550.1v-76.41h27.64c6.05,0,11.24,1.99,15.58,5.98,4.34,3.91,6.51,8.86,6.51,14.83,0,7.54-3.45,12.84-10.35,15.9v.43c3.91,1.28,7.04,3.5,9.39,6.67,2.35,3.17,3.52,6.78,3.52,10.83,0,6.26-2.28,11.46-6.83,15.58-4.41,4.13-9.85,6.19-16.33,6.19h-29.13Zm9.82-67.02v23.37h17.82c3.49,0,6.4-1.17,8.75-3.52,2.35-2.42,3.52-5.16,3.52-8.22s-1.14-5.69-3.41-8.11c-2.28-2.35-5.09-3.52-8.43-3.52h-18.25Zm0,32.55v25.08h19.74c3.56,0,6.58-1.24,9.07-3.73,2.42-2.49,3.63-5.44,3.63-8.86s-1.25-6.26-3.74-8.75c-2.49-2.49-5.62-3.73-9.39-3.73h-19.32Z"/>
          </g>
        </g>
      </g>
      <rect class="cls-2" x="0" y="0" width="97.58" height="608.74" rx="48.79" ry="48.79"/>
    </g>
  </g>
</svg>